<svg id="visual" viewBox="0 0 1400 500" width="1400" height="500" xmlns="http://www.w3.org/2000/svg" xmlns:xlink="http://www.w3.org/1999/xlink" version="1.1"><rect x="0" y="0" width="1400" height="500" fill="#303FA1"></rect><defs><linearGradient id="grad1_0" x1="64.3%" y1="0%" x2="100%" y2="100%"><stop offset="-5.999999999999993%" stop-color="#303fa1" stop-opacity="1"></stop><stop offset="105.99999999999999%" stop-color="#303fa1" stop-opacity="1"></stop></linearGradient></defs><defs><linearGradient id="grad2_0" x1="0%" y1="0%" x2="35.7%" y2="100%"><stop offset="-5.999999999999993%" stop-color="#303fa1" stop-opacity="1"></stop><stop offset="105.99999999999999%" stop-color="#303fa1" stop-opacity="1"></stop></linearGradient></defs><g transform="translate(1400, 0)"><path d="M0 450C-47.9 418.1 -95.7 386.3 -153.1 369.6C-210.4 352.8 -277.3 351.3 -318.2 318.2C-359.1 285.1 -374.1 220.5 -391.7 162.3C-409.4 104 -429.7 52 -450 0L0 0Z" fill="#A8A9AE"></path></g><g transform="translate(0, 500)"><path d="M0 -450C57 -434.6 114 -419.2 163.4 -394.5C212.9 -369.8 254.8 -335.9 299.1 -299.1C343.4 -262.3 390.2 -222.5 415.7 -172.2C441.3 -121.9 445.6 -60.9 450 0L0 0Z" fill="#A8A9AE"></path></g></svg>